<?xml version="1.0" standalone="no"?>
<!DOCTYPE svg PUBLIC "-//W3C//DTD SVG 20010904//EN"
 "http://www.w3.org/TR/2001/REC-SVG-20010904/DTD/svg10.dtd">
<svg version="1.0" xmlns="http://www.w3.org/2000/svg"
 width="500.000000pt" height="500.000000pt" viewBox="0 0 500.000000 500.000000"
 preserveAspectRatio="xMidYMid meet">

<g transform="translate(0.000000,500.000000) scale(0.100000,-0.100000)"
fill="#000000" stroke="none">
<path d="M1272 2860 c-20 -12 -41 -38 -52 -63 -11 -23 -35 -52 -54 -65 -19
-13 -46 -41 -61 -62 -16 -23 -38 -41 -55 -45 -74 -16 -114 -124 -70 -193 11
-18 36 -40 56 -48 44 -18 161 -136 188 -189 26 -50 81 -80 131 -71 44 9 91 48
106 89 6 18 25 41 42 52 17 11 45 39 62 62 17 24 41 44 58 48 38 9 85 59 93
100 12 65 -30 136 -91 151 -12 3 -38 25 -59 49 -20 24 -49 52 -65 61 -17 10
-32 28 -36 42 -10 39 -34 69 -70 86 -45 21 -83 20 -123 -4z m90 -37 c19 -17
25 -53 8 -53 -5 0 -10 7 -10 15 0 9 -9 15 -21 15 -29 0 -21 -33 11 -40 33 -8
40 -58 11 -84 -16 -15 -22 -15 -40 -4 -23 14 -37 45 -26 56 4 4 11 -1 16 -11
13 -23 52 -23 47 0 -2 10 -12 19 -23 21 -49 9 -61 58 -22 85 28 20 27 20 49 0z
m-141 -125 c18 -43 72 -78 118 -78 48 0 99 33 117 75 17 41 28 39 84 -20 29
-30 32 -37 20 -45 -8 -5 -20 -10 -26 -10 -5 0 -23 -13 -39 -30 -59 -62 -38
-173 40 -206 19 -8 35 -16 35 -19 0 -9 -63 -76 -81 -86 -16 -8 -21 -4 -33 26
-8 19 -30 44 -48 55 -67 43 -174 5 -192 -66 -4 -13 -11 -24 -16 -24 -13 0 -90
77 -90 89 0 5 16 18 37 28 98 51 93 187 -9 233 l-40 18 44 46 c25 25 49 46 54
46 6 0 17 -15 25 -32z m-97 -124 c26 -10 18 -24 -13 -24 -17 0 -33 -4 -36 -10
-4 -6 7 -10 24 -10 17 0 31 -4 31 -10 0 -5 -16 -10 -35 -10 -19 0 -35 -4 -35
-10 0 -5 16 -10 35 -10 19 0 35 -4 35 -10 0 -5 -14 -10 -31 -10 -17 0 -28 -4
-24 -10 3 -5 19 -10 36 -10 33 0 39 -15 9 -25 -21 -7 -60 10 -73 31 -4 8 -15
14 -22 14 -18 0 -20 16 -2 24 10 5 10 7 0 12 -18 8 -16 24 2 24 8 0 15 4 15
10 0 5 12 16 28 24 31 18 35 18 56 10z m501 -4 c-3 -5 -15 -10 -26 -10 -30 0
-22 -44 9 -48 27 -4 29 -18 2 -25 -27 -7 -25 -35 3 -39 36 -5 20 -23 -20 -23
-39 0 -44 8 -28 48 5 12 2 17 -9 17 -9 0 -16 5 -16 10 0 6 4 10 9 10 5 0 7 9
4 20 -3 11 0 27 7 35 14 17 75 21 65 5z m-249 -278 c-12 -23 -12 -28 3 -39 14
-11 14 -12 -6 -13 -13 0 -23 -4 -23 -10 0 -5 6 -10 14 -10 28 0 26 -19 -4 -33
-16 -9 -30 -12 -30 -7 0 4 -9 10 -20 13 -27 7 -25 25 3 30 l22 4 -22 8 c-25 8
-30 21 -12 27 9 3 9 10 0 27 -17 32 -3 41 18 12 l18 -24 18 26 c22 34 40 25
21 -11z"/>
<path d="M1805 2495 c0 -223 4 -345 10 -345 6 0 10 122 10 345 0 223 -4 345
-10 345 -6 0 -10 -122 -10 -345z"/>
<path d="M2260 2700 c0 -80 4 -130 10 -130 6 0 10 50 10 130 0 80 -4 130 -10
130 -6 0 -10 -50 -10 -130z"/>
<path d="M2350 2701 c0 -111 2 -131 15 -131 13 0 15 18 13 127 -2 90 -7 128
-15 131 -10 3 -13 -27 -13 -127z"/>
<path d="M2520 2809 c-34 -7 -92 -60 -72 -67 5 -1 27 9 47 23 21 14 44 25 51
25 26 0 69 -21 85 -42 9 -11 22 -19 29 -16 20 6 -39 67 -75 76 -16 5 -46 5
-65 1z"/>
<path d="M2058 2728 c-26 -26 -9 -37 24 -14 31 22 54 20 72 -6 21 -30 12 -38
-44 -38 -72 0 -105 -44 -62 -83 22 -20 82 -22 101 -4 11 10 14 10 18 0 12 -34
23 -5 23 61 0 66 -3 77 -22 90 -33 23 -84 20 -110 -6z m102 -98 c-23 -43 -100
-52 -100 -11 0 27 9 31 62 31 45 0 48 -1 38 -20z"/>
<path d="M2722 2681 c2 -50 9 -75 22 -90 21 -23 65 -28 97 -11 13 7 19 7 19 0
0 -5 5 -10 10 -10 6 0 10 37 10 90 0 53 -4 90 -10 90 -5 0 -10 -23 -10 -51 0
-57 -11 -83 -41 -99 -16 -9 -26 -8 -45 5 -21 14 -24 23 -24 80 0 53 -3 65 -16
65 -14 0 -16 -11 -12 -69z"/>
<path d="M2950 2660 c0 -73 3 -90 15 -90 12 0 15 13 15 59 0 64 15 91 51 91
10 0 19 7 19 15 0 18 -23 19 -53 4 -16 -9 -22 -9 -25 0 -2 6 -8 11 -13 11 -5
0 -9 -40 -9 -90z"/>
<path d="M3100 2660 c0 -73 3 -90 15 -90 12 0 15 13 15 58 0 62 14 86 54 93
26 5 33 29 9 29 -10 0 -29 -7 -41 -16 -20 -14 -22 -14 -22 0 0 9 -7 16 -15 16
-12 0 -15 -17 -15 -90z"/>
<path d="M3279 2740 c-44 -26 -48 -125 -6 -155 30 -21 90 -19 118 4 34 27 16
38 -26 15 -32 -17 -38 -18 -63 -4 -15 9 -28 23 -30 33 -3 15 6 17 72 17 62 0
76 3 76 15 0 25 -27 72 -45 79 -24 9 -78 7 -96 -4z m89 -26 c41 -29 28 -44
-38 -44 -46 0 -60 3 -60 14 0 17 38 46 60 46 9 0 26 -7 38 -16z"/>
<path d="M3470 2660 c0 -73 3 -90 15 -90 12 0 15 13 15 60 0 47 4 64 20 80 24
24 38 25 68 4 19 -13 22 -24 22 -80 0 -52 3 -64 16 -64 24 0 16 130 -10 159
-21 23 -65 28 -97 11 -13 -7 -19 -7 -19 0 0 5 -7 10 -15 10 -12 0 -15 -17 -15
-90z"/>
<path d="M3715 2725 c-19 -18 -25 -35 -25 -65 0 -30 6 -47 25 -65 33 -34 93
-34 123 -2 37 39 20 55 -18 17 -25 -25 -51 -25 -81 -2 -45 37 -16 122 41 122
9 0 29 -9 43 -20 42 -33 54 -17 15 20 -32 29 -92 27 -123 -5z"/>
<path d="M2619 2624 c-31 -31 -86 -35 -124 -10 -28 18 -45 21 -45 6 0 -20 65
-50 107 -50 33 0 50 7 78 31 19 17 35 35 35 40 0 17 -26 9 -51 -17z"/>
<path d="M2502 2470 c0 -14 2 -19 5 -12 2 6 2 18 0 25 -3 6 -5 1 -5 -13z"/>
<path d="M2200 2350 c0 -5 4 -10 9 -10 6 0 13 5 16 10 3 6 -1 10 -9 10 -9 0
-16 -4 -16 -10z"/>
<path d="M2895 2350 c3 -5 10 -10 16 -10 5 0 9 5 9 10 0 6 -7 10 -16 10 -8 0
-12 -4 -9 -10z"/>
<path d="M2958 2329 c-14 -15 -14 -18 -2 -23 9 -3 14 -20 14 -45 0 -22 4 -42
9 -45 5 -4 2 -24 -7 -48 l-16 -41 -23 49 c-13 27 -24 72 -24 99 -2 35 -3 40
-6 19 -3 -26 -8 -31 -24 -27 -10 3 -19 2 -19 -1 0 -4 18 -43 41 -88 34 -68 39
-85 30 -105 -6 -13 -19 -23 -31 -23 -11 0 -20 -7 -20 -15 0 -17 23 -20 49 -5
10 5 31 40 46 77 67 167 66 163 51 163 -8 0 -18 -9 -21 -20 -10 -32 -25 -23
-25 15 0 28 5 38 23 45 l22 9 -22 0 c-12 1 -23 7 -25 14 -2 9 -7 8 -20 -4z"/>
<path d="M2753 2325 c-8 -9 -9 -16 -3 -20 6 -3 10 -21 10 -39 0 -17 5 -37 12
-44 15 -15 38 -16 38 -2 0 6 -7 10 -15 10 -23 0 -21 77 3 83 16 4 16 5 0 6
-10 0 -18 6 -18 11 0 14 -13 12 -27 -5z"/>
<path d="M1942 2308 c-7 -7 -12 -26 -12 -43 0 -17 5 -36 12 -43 24 -24 88 -9
88 20 0 5 -11 2 -24 -7 -26 -18 -53 -11 -61 15 -14 43 23 70 61 45 13 -9 24
-12 24 -7 0 16 -25 32 -50 32 -14 0 -31 -5 -38 -12z"/>
<path d="M2076 2304 c-9 -8 -16 -26 -16 -39 0 -13 7 -31 16 -39 8 -9 26 -16
39 -16 13 0 31 7 39 16 9 8 16 26 16 39 0 13 -7 31 -16 39 -8 9 -26 16 -39 16
-13 0 -31 -7 -39 -16z m71 -20 c12 -19 11 -24 -6 -45 -16 -19 -23 -22 -37 -13
-34 20 -40 41 -19 64 22 25 42 23 62 -6z"/>
<path d="M2213 2265 c0 -33 2 -45 4 -27 2 18 2 45 0 60 -2 15 -4 0 -4 -33z"/>
<path d="M2260 2263 c0 -29 5 -53 10 -53 6 0 10 17 10 39 0 80 60 80 71 0 l6
-44 1 46 c2 55 -11 69 -61 67 l-37 -1 0 -54z"/>
<path d="M2392 2312 c2 -4 12 -29 22 -55 10 -26 23 -46 29 -44 12 4 59 107 48
107 -4 0 -17 -19 -28 -42 l-21 -43 -19 42 c-10 24 -22 43 -26 43 -5 0 -7 -3
-5 -8z"/>
<path d="M2532 2308 c-7 -7 -12 -26 -12 -43 0 -17 5 -36 12 -43 17 -17 63 -15
78 3 15 17 7 19 -21 5 -13 -8 -25 -7 -39 0 -33 18 -23 30 25 30 37 0 45 3 45
18 0 25 -20 42 -50 42 -14 0 -31 -5 -38 -12z m59 -8 c31 -17 22 -30 -21 -30
-42 0 -52 12 -22 29 21 13 20 13 43 1z"/>
<path d="M2661 2260 c1 -54 2 -54 9 -16 4 23 17 46 31 57 l24 18 -32 -2 -33
-2 1 -55z"/>
<path d="M3050 2220 c0 -5 5 -10 10 -10 6 0 10 5 10 10 0 6 -4 10 -10 10 -5 0
-10 -4 -10 -10z"/>
</g>
</svg>
