<?xml version="1.0" encoding="UTF-8"?>
<svg xmlns="http://www.w3.org/2000/svg" xmlns:xlink="http://www.w3.org/1999/xlink" width="185px" height="185px" viewBox="0 0 185 185" version="1.1">
<g id="surface1">
<path style=" stroke:none;fill-rule:nonzero;fill:rgb(0%,0%,0%);fill-opacity:1;" d="M 38.851562 59.570312 C 35.519531 59.679688 33.152344 59.941406 32.558594 60.273438 C 31.152344 61.011719 28.121094 63.046875 28.121094 63.269531 C 28.121094 63.382812 29.265625 63.417969 30.671875 63.34375 L 33.1875 63.195312 L 34.890625 67.96875 C 35.816406 70.597656 37.664062 76.332031 39.035156 80.695312 C 40.367188 85.0625 41.734375 89.390625 42.03125 90.355469 L 42.625 92.128906 L 45.546875 92.128906 C 47.136719 92.128906 48.46875 92.054688 48.46875 91.980469 C 48.46875 91.90625 46.472656 85.285156 43.992188 77.292969 C 41.476562 69.078125 39.699219 62.679688 39.921875 62.605469 C 40.550781 62.382812 44.769531 59.605469 44.769531 59.386719 C 44.769531 59.273438 44.660156 59.238281 44.511719 59.273438 C 44.324219 59.3125 41.808594 59.421875 38.851562 59.570312 Z M 38.851562 59.570312 "/>
<path style=" stroke:none;fill-rule:nonzero;fill:rgb(0%,0%,0%);fill-opacity:1;" d="M 71.039062 59.53125 C 66.046875 59.753906 65.5625 59.828125 63.75 60.828125 C 62.679688 61.421875 61.492188 62.234375 61.085938 62.679688 L 60.347656 63.453125 L 62.753906 63.34375 L 65.121094 63.195312 L 65.121094 64.640625 C 65.082031 68.488281 61.9375 78.253906 56.351562 91.6875 C 56.203125 92.054688 56.5 92.167969 57.570312 92.054688 L 59.015625 91.945312 L 62.011719 84.359375 C 63.675781 80.179688 65.785156 74.703125 66.675781 72.222656 L 68.300781 67.636719 L 69.707031 72.59375 C 70.484375 75.296875 72.1875 80.808594 73.519531 84.804688 L 75.925781 92.128906 L 79.21875 92.128906 C 81.03125 92.128906 82.511719 92.09375 82.511719 92.019531 C 82.511719 91.980469 81.585938 89.171875 80.476562 85.839844 C 78.253906 79.21875 73.113281 62.160156 73.335938 62.011719 C 73.40625 61.976562 74.332031 61.382812 75.40625 60.71875 C 77.367188 59.460938 77.699219 59.164062 76.886719 59.273438 C 76.628906 59.3125 74 59.421875 71.039062 59.53125 Z M 71.039062 59.53125 "/>
<path style=" stroke:none;fill-rule:nonzero;fill:rgb(0%,0%,0%);fill-opacity:1;" d="M 104.339844 59.570312 C 99.679688 59.753906 98.753906 59.902344 97.308594 60.644531 C 95.496094 61.605469 93.609375 62.9375 93.609375 63.234375 C 93.609375 63.34375 94.941406 63.417969 96.570312 63.34375 L 99.53125 63.195312 L 99.53125 64.566406 C 99.53125 68.078125 97.015625 76.738281 93.203125 86.320312 C 91.980469 89.316406 91.019531 91.835938 91.019531 91.945312 C 91.019531 92.054688 91.5 92.128906 92.09375 92.128906 C 93.128906 92.128906 93.277344 91.90625 95.460938 86.691406 C 97.902344 80.957031 101.933594 69.894531 103.046875 65.824219 C 103.746094 63.417969 103.746094 63.382812 106.042969 62.160156 C 108.335938 60.9375 110.816406 59.164062 110.074219 59.273438 C 109.890625 59.3125 107.300781 59.421875 104.339844 59.570312 Z M 104.339844 59.570312 "/>
<path style=" stroke:none;fill-rule:nonzero;fill:rgb(0%,0%,0%);fill-opacity:1;" d="M 136.898438 59.605469 C 136.195312 59.753906 133.199219 60.015625 130.238281 60.160156 C 123.542969 60.457031 120.398438 61.53125 116.179688 64.859375 L 115.253906 65.601562 L 118.03125 65.34375 C 119.546875 65.195312 121.359375 65.007812 122.027344 64.859375 L 123.210938 64.675781 L 123.210938 92.128906 L 131.277344 92.128906 L 131.496094 83.878906 C 131.609375 79.363281 131.832031 72.890625 131.941406 69.484375 L 132.164062 63.308594 L 134.828125 61.828125 C 139.121094 59.460938 139.601562 58.941406 136.898438 59.605469 Z M 136.898438 59.605469 "/>
<path style=" stroke:none;fill-rule:nonzero;fill:rgb(0%,0%,0%);fill-opacity:1;" d="M 55.128906 95.089844 C 54.722656 95.347656 54.6875 95.460938 55.054688 95.460938 C 55.464844 95.460938 55.535156 96.199219 55.425781 98.976562 C 55.351562 101.898438 55.390625 102.488281 55.871094 102.488281 C 56.3125 102.488281 56.386719 101.933594 56.3125 99.121094 C 56.238281 96.902344 56.351562 95.609375 56.609375 95.238281 C 56.980469 94.832031 56.941406 94.71875 56.386719 94.71875 C 55.980469 94.71875 55.425781 94.90625 55.128906 95.089844 Z M 55.128906 95.089844 "/>
<path style=" stroke:none;fill-rule:nonzero;fill:rgb(0%,0%,0%);fill-opacity:1;" d="M 64.640625 94.941406 C 64.527344 95.054688 64.601562 95.460938 64.824219 95.792969 C 65.082031 96.199219 65.121094 97.234375 64.933594 98.605469 L 64.675781 100.75 L 62.898438 98.976562 C 61.902344 97.976562 60.902344 96.71875 60.644531 96.125 C 59.976562 94.460938 59.570312 94.90625 59.570312 97.382812 C 59.570312 98.679688 59.460938 100.34375 59.347656 101.085938 C 59.164062 102.15625 59.238281 102.488281 59.605469 102.488281 C 60.015625 102.488281 60.089844 101.898438 60.015625 99.824219 C 59.941406 98.347656 59.941406 97.199219 60.015625 97.308594 C 62.269531 100.011719 64.785156 102.378906 65.007812 102.007812 C 65.488281 101.269531 65.75 94.71875 65.269531 94.71875 C 65.046875 94.71875 64.785156 94.832031 64.640625 94.941406 Z M 64.640625 94.941406 "/>
<path style=" stroke:none;fill-rule:nonzero;fill:rgb(0%,0%,0%);fill-opacity:1;" d="M 67.488281 95.164062 C 67.378906 95.347656 67.894531 95.460938 68.636719 95.460938 L 70.003906 95.460938 L 69.855469 98.976562 C 69.746094 102.082031 69.820312 102.488281 70.375 102.488281 C 71.113281 102.488281 71.59375 101.859375 71.003906 101.675781 C 70.742188 101.601562 70.671875 100.601562 70.855469 98.492188 L 71.152344 95.460938 L 72.371094 95.460938 C 73.039062 95.460938 73.703125 95.273438 73.816406 95.089844 C 73.964844 94.832031 72.925781 94.757812 70.855469 94.792969 C 69.078125 94.867188 67.5625 95.015625 67.488281 95.164062 Z M 67.488281 95.164062 "/>
<path style=" stroke:none;fill-rule:nonzero;fill:rgb(0%,0%,0%);fill-opacity:1;" d="M 77.515625 95.054688 L 75.664062 95.273438 L 75.664062 102.488281 L 77.328125 102.414062 C 78.734375 102.378906 78.808594 102.34375 77.773438 102.230469 C 76.699219 102.082031 76.554688 101.972656 76.738281 101.269531 C 76.847656 100.824219 76.960938 100.085938 76.960938 99.605469 C 76.960938 98.976562 77.183594 98.789062 77.847656 98.789062 C 78.367188 98.789062 78.882812 98.605469 78.996094 98.421875 C 79.144531 98.199219 78.734375 98.050781 78.105469 98.050781 C 77.035156 98.050781 76.960938 97.9375 76.960938 96.753906 C 76.960938 95.535156 77.035156 95.460938 78.21875 95.460938 C 78.921875 95.460938 79.625 95.273438 79.734375 95.089844 C 79.847656 94.867188 79.847656 94.757812 79.660156 94.792969 C 79.511719 94.832031 78.550781 94.941406 77.515625 95.054688 Z M 77.515625 95.054688 "/>
<path style=" stroke:none;fill-rule:nonzero;fill:rgb(0%,0%,0%);fill-opacity:1;" d="M 82.324219 95.015625 C 82.140625 95.164062 81.953125 96.902344 81.953125 98.902344 C 81.953125 102.007812 82.027344 102.488281 82.585938 102.488281 C 83.285156 102.488281 83.804688 101.898438 83.285156 101.675781 C 83.140625 101.640625 83.066406 100.195312 83.175781 98.492188 C 83.324219 95.902344 83.433594 95.460938 84.027344 95.460938 C 85.101562 95.460938 85.914062 96.53125 85.65625 97.605469 C 85.46875 98.421875 85.507812 98.492188 85.988281 98.085938 C 86.839844 97.382812 86.726562 95.976562 85.765625 95.3125 C 84.914062 94.683594 82.953125 94.535156 82.324219 95.015625 Z M 82.324219 95.015625 "/>
<path style=" stroke:none;fill-rule:nonzero;fill:rgb(0%,0%,0%);fill-opacity:1;" d="M 93.796875 94.941406 C 93.574219 95.015625 93.460938 96.53125 93.535156 98.753906 C 93.609375 100.972656 93.5 102.75 93.238281 103.191406 C 92.648438 104.304688 93.09375 104.15625 93.867188 102.972656 C 94.351562 102.269531 94.570312 100.9375 94.71875 98.347656 C 94.90625 94.832031 94.792969 94.496094 93.796875 94.941406 Z M 93.796875 94.941406 "/>
<path style=" stroke:none;fill-rule:nonzero;fill:rgb(0%,0%,0%);fill-opacity:1;" d="M 108.226562 95.054688 C 107.632812 95.273438 107.855469 95.386719 109.148438 95.535156 C 110.964844 95.71875 111.519531 95.609375 111.183594 95.054688 C 110.925781 94.644531 109.261719 94.644531 108.226562 95.054688 Z M 108.226562 95.054688 "/>
<path style=" stroke:none;fill-rule:nonzero;fill:rgb(0%,0%,0%);fill-opacity:1;" d="M 113.21875 94.792969 C 113.183594 94.867188 113.144531 96.605469 113.109375 98.714844 L 113.035156 102.488281 L 113.960938 102.488281 C 114.476562 102.488281 114.699219 102.34375 114.476562 102.195312 C 114.257812 102.046875 114.144531 101.269531 114.257812 100.417969 L 114.402344 98.863281 L 115.882812 100.492188 C 117.476562 102.230469 118.621094 102.785156 119.25 102.15625 C 119.546875 101.859375 119.546875 101.75 119.214844 101.75 C 118.621094 101.75 115.441406 98.828125 115.441406 98.308594 C 115.441406 98.085938 116.144531 97.160156 116.992188 96.3125 C 118.4375 94.832031 118.511719 94.425781 117.140625 94.941406 C 116.847656 95.054688 116.660156 95.347656 116.773438 95.609375 C 116.847656 95.828125 116.328125 96.605469 115.589844 97.308594 L 114.257812 98.605469 L 114.402344 96.644531 C 114.476562 95.015625 114.402344 94.71875 113.886719 94.71875 C 113.515625 94.71875 113.21875 94.757812 113.21875 94.792969 Z M 113.21875 94.792969 "/>
<path style=" stroke:none;fill-rule:nonzero;fill:rgb(0%,0%,0%);fill-opacity:1;" d="M 123.394531 95.054688 C 122.765625 95.3125 122.804688 95.386719 123.765625 95.535156 C 124.984375 95.792969 125.539062 95.609375 125.246094 95.054688 C 124.984375 94.644531 124.429688 94.644531 123.394531 95.054688 Z M 123.394531 95.054688 "/>
<path style=" stroke:none;fill-rule:nonzero;fill:rgb(0%,0%,0%);fill-opacity:1;" d="M 129.609375 95.273438 C 128.203125 95.867188 126.910156 97.789062 126.910156 99.234375 C 126.910156 100.675781 128.574219 102.488281 129.90625 102.488281 C 132.421875 102.488281 134.308594 100.675781 134.308594 98.234375 C 134.308594 95.644531 131.980469 94.203125 129.609375 95.273438 Z M 132.347656 96.347656 C 134.382812 98.085938 133.386719 101.75 130.867188 101.75 C 129.128906 101.75 128.019531 100.492188 128.019531 98.53125 C 128.019531 95.683594 130.238281 94.535156 132.347656 96.347656 Z M 132.347656 96.347656 "/>
<path style=" stroke:none;fill-rule:nonzero;fill:rgb(0%,0%,0%);fill-opacity:1;" d="M 141.96875 94.941406 C 141.859375 95.054688 141.933594 95.460938 142.152344 95.792969 C 142.414062 96.199219 142.449219 97.234375 142.265625 98.605469 L 142.007812 100.75 L 140.230469 98.976562 C 139.230469 97.976562 138.230469 96.71875 137.972656 96.125 C 137.308594 94.460938 136.898438 94.90625 136.898438 97.382812 C 136.898438 98.679688 136.789062 100.34375 136.679688 101.085938 C 136.492188 102.15625 136.566406 102.488281 136.9375 102.488281 C 137.34375 102.488281 137.417969 101.898438 137.34375 99.824219 C 137.269531 98.347656 137.269531 97.199219 137.34375 97.308594 C 139.601562 100.011719 142.117188 102.378906 142.339844 102.007812 C 142.820312 101.269531 143.078125 94.71875 142.597656 94.71875 C 142.375 94.71875 142.117188 94.832031 141.96875 94.941406 Z M 141.96875 94.941406 "/>
<path style=" stroke:none;fill-rule:nonzero;fill:rgb(0%,0%,0%);fill-opacity:1;" d="M 41.734375 95.535156 C 41.921875 95.792969 42.550781 97.457031 43.140625 99.269531 C 44.363281 103.007812 44.511719 103.007812 46.214844 99.011719 C 46.804688 97.644531 47.359375 96.644531 47.433594 96.792969 C 47.546875 96.976562 47.988281 98.347656 48.46875 99.789062 C 48.949219 101.269531 49.46875 102.488281 49.617188 102.488281 C 49.800781 102.488281 50.097656 102.15625 50.320312 101.785156 C 50.765625 100.898438 50.800781 100.234375 50.355469 100.972656 C 50.136719 101.34375 49.726562 100.527344 48.988281 98.273438 C 48.101562 95.570312 47.839844 95.089844 47.136719 95.089844 C 46.507812 95.089844 46.359375 95.238281 46.507812 95.828125 C 46.730469 96.605469 45.25 101.011719 44.769531 101.011719 C 44.472656 101.011719 43.066406 96.273438 43.140625 95.535156 C 43.179688 95.273438 42.808594 95.089844 42.289062 95.089844 C 41.589844 95.089844 41.441406 95.199219 41.734375 95.535156 Z M 41.734375 95.535156 "/>
<path style=" stroke:none;fill-rule:nonzero;fill:rgb(0%,0%,0%);fill-opacity:1;" d="M 51.761719 95.421875 C 52.171875 95.683594 52.171875 96.015625 51.6875 97.347656 C 50.691406 100.269531 50.652344 100.492188 51.578125 98.605469 C 52.097656 97.570312 52.503906 96.460938 52.503906 96.125 C 52.539062 95.792969 52.761719 95.421875 53.019531 95.347656 C 53.242188 95.238281 52.984375 95.128906 52.355469 95.128906 C 51.578125 95.128906 51.394531 95.199219 51.761719 95.421875 Z M 51.761719 95.421875 "/>
<path style=" stroke:none;fill-rule:nonzero;fill:rgb(0%,0%,0%);fill-opacity:1;" d="M 99.789062 95.347656 C 99.679688 95.535156 99.085938 96.976562 98.421875 98.605469 C 97.753906 100.234375 97.050781 101.785156 96.828125 102.007812 C 96.570312 102.34375 96.644531 102.488281 97.089844 102.488281 C 97.421875 102.488281 97.644531 102.378906 97.605469 102.195312 C 97.421875 101.492188 98.199219 100.195312 99.050781 99.863281 C 100.566406 99.308594 100.972656 99.457031 101.230469 100.863281 C 101.492188 102.269531 102.269531 102.859375 102.972656 102.15625 C 103.265625 101.859375 103.265625 101.75 102.933594 101.75 C 102.601562 101.75 102.195312 100.640625 100.789062 95.71875 C 100.566406 95.054688 100.085938 94.867188 99.789062 95.347656 Z M 100.269531 97.457031 C 100.269531 97.753906 100.382812 98.234375 100.492188 98.566406 C 100.675781 99.011719 100.492188 99.160156 99.789062 99.160156 C 98.902344 99.160156 98.863281 99.085938 99.195312 98.050781 C 99.605469 96.902344 100.269531 96.53125 100.269531 97.457031 Z M 100.269531 97.457031 "/>
<path style=" stroke:none;fill-rule:nonzero;fill:rgb(0%,0%,0%);fill-opacity:1;" d="M 106.117188 96.089844 C 104.378906 98.085938 104.265625 99.898438 105.78125 101.417969 C 106.929688 102.527344 108.742188 102.859375 109.890625 102.121094 C 110.296875 101.859375 110.113281 101.75 109.113281 101.75 C 107.003906 101.75 105.820312 100.601562 105.820312 98.566406 C 105.820312 97.421875 106.042969 96.71875 106.558594 96.199219 C 106.96875 95.792969 107.152344 95.460938 107.003906 95.460938 C 106.820312 95.460938 106.410156 95.757812 106.117188 96.089844 Z M 106.117188 96.089844 "/>
<path style=" stroke:none;fill-rule:nonzero;fill:rgb(0%,0%,0%);fill-opacity:1;" d="M 121.582031 96.164062 C 120.621094 97.234375 120.988281 98.125 122.765625 99.085938 C 123.765625 99.640625 124.320312 100.195312 124.320312 100.675781 C 124.320312 101.527344 124.875 101.601562 125.207031 100.824219 C 125.503906 100.046875 125.097656 99.234375 124.320312 98.976562 C 123.949219 98.863281 123.210938 98.347656 122.691406 97.863281 C 121.878906 97.089844 121.765625 96.828125 122.101562 96.199219 C 122.617188 95.273438 122.394531 95.238281 121.582031 96.164062 Z M 121.582031 96.164062 "/>
<path style=" stroke:none;fill-rule:nonzero;fill:rgb(0%,0%,0%);fill-opacity:1;" d="M 84.433594 98.753906 C 84.210938 98.902344 84.691406 99.753906 85.617188 100.824219 C 87.097656 102.488281 87.28125 102.601562 88.097656 102.230469 C 88.6875 101.933594 88.800781 101.785156 88.394531 101.785156 C 88.058594 101.75 87.097656 101.011719 86.285156 100.121094 C 85.46875 99.234375 84.617188 98.605469 84.433594 98.753906 Z M 84.433594 98.753906 "/>
<path style=" stroke:none;fill-rule:nonzero;fill:rgb(0%,0%,0%);fill-opacity:1;" d="M 120.84375 101.675781 C 120.175781 102.304688 121.804688 103.082031 122.730469 102.5625 C 123.0625 102.378906 122.878906 102.15625 122.101562 101.859375 C 121.507812 101.640625 120.953125 101.566406 120.84375 101.675781 Z M 120.84375 101.675781 "/>
<path style=" stroke:none;fill-rule:nonzero;fill:rgb(0%,0%,0%);fill-opacity:1;" d="M 47.027344 106.078125 C 47.027344 106.449219 47.324219 107.558594 47.691406 108.558594 L 48.320312 110.40625 L 49.875 108.226562 C 50.726562 107.039062 51.429688 105.929688 51.429688 105.746094 C 51.429688 105.597656 50.429688 105.449219 49.210938 105.449219 C 47.324219 105.449219 46.988281 105.5625 47.027344 106.078125 Z M 47.027344 106.078125 "/>
<path style=" stroke:none;fill-rule:nonzero;fill:rgb(0%,0%,0%);fill-opacity:1;" d="M 81.105469 105.746094 C 81.179688 105.894531 81.546875 106.894531 81.917969 107.964844 C 82.324219 109.039062 82.730469 109.890625 82.84375 109.890625 C 83.140625 109.851562 85.949219 106.375 86.136719 105.855469 C 86.210938 105.597656 85.359375 105.449219 83.621094 105.449219 C 82.175781 105.449219 81.03125 105.597656 81.105469 105.746094 Z M 81.105469 105.746094 "/>
<path style=" stroke:none;fill-rule:nonzero;fill:rgb(0%,0%,0%);fill-opacity:1;" d="M 123.46875 105.710938 C 123.320312 105.820312 123.210938 108.707031 123.210938 112.074219 C 123.210938 119.175781 122.765625 123.46875 121.507812 128.351562 C 119.511719 136.011719 115.328125 142.449219 110.074219 145.929688 C 107.671875 147.519531 109.148438 147 112.40625 145.113281 C 120.359375 140.527344 126.207031 133.421875 129.09375 124.800781 C 130.351562 121.027344 130.980469 116.4375 130.980469 110.777344 L 130.980469 105.449219 L 127.355469 105.449219 C 125.355469 105.449219 123.578125 105.5625 123.46875 105.710938 Z M 123.46875 105.710938 "/>
</g>
</svg>
