<?xml version="1.0" standalone="no"?>
<!DOCTYPE svg PUBLIC "-//W3C//DTD SVG 20010904//EN"
 "http://www.w3.org/TR/2001/REC-SVG-20010904/DTD/svg10.dtd">
<svg version="1.0" xmlns="http://www.w3.org/2000/svg"
 width="500.000000pt" height="500.000000pt" viewBox="0 0 500.000000 500.000000"
 preserveAspectRatio="xMidYMid meet">

<g transform="translate(0.000000,500.000000) scale(0.100000,-0.100000)"
fill="#000000" stroke="none">
<path d="M1070 2940 l0 -260 75 0 74 0 3 93 3 92 90 5 c133 8 192 49 202 144
7 56 -9 97 -52 135 -45 39 -108 51 -265 51 l-130 0 0 -260z m268 134 c25 -17
29 -51 9 -78 -10 -13 -24 -17 -67 -14 l-55 3 -3 39 c-2 21 -1 44 2 52 7 19 86
18 114 -2z"/>
<path d="M1582 2943 l3 -258 193 -3 192 -2 0 55 0 55 -115 0 -115 0 -2 203 -3
202 -78 3 -77 3 2 -258z"/>
<path d="M2023 3185 c-3 -9 -4 -94 -1 -189 4 -158 6 -176 29 -222 34 -70 92
-98 201 -97 100 1 161 28 192 88 19 36 21 60 24 238 l4 198 -64 -3 -63 -3 -5
-180 c-3 -99 -9 -187 -13 -197 -14 -28 -62 -42 -96 -29 -45 19 -51 46 -51 236
l0 175 -75 0 c-59 0 -77 -3 -82 -15z"/>
<path d="M2527 3193 c-4 -3 -7 -28 -7 -54 l0 -48 73 -3 72 -3 3 -202 2 -203
75 0 75 0 2 203 3 202 73 3 72 3 0 54 0 55 -218 0 c-120 0 -222 -3 -225 -7z"/>
<path d="M3023 3185 c-3 -9 -4 -94 -1 -189 4 -158 6 -176 29 -222 34 -70 92
-98 201 -97 100 1 161 28 192 88 19 36 21 60 24 238 l4 198 -64 -3 -63 -3 -5
-180 c-3 -99 -9 -187 -13 -197 -14 -28 -62 -42 -96 -29 -45 19 -51 46 -51 236
l0 175 -75 0 c-59 0 -77 -3 -82 -15z"/>
<path d="M3629 3177 c-58 -31 -89 -77 -89 -134 0 -90 43 -131 171 -165 94 -24
109 -32 109 -59 0 -57 -156 -50 -189 8 -9 17 -11 17 -43 0 -62 -34 -74 -46
-62 -65 33 -52 122 -85 231 -84 132 0 213 63 213 165 0 95 -48 137 -198 172
-83 20 -107 43 -70 69 34 24 89 20 127 -9 l34 -24 43 31 c24 17 44 35 44 39 0
15 -62 59 -98 69 -69 19 -174 13 -223 -13z"/>
<path d="M1027 2356 c-102 -28 -166 -114 -175 -235 -11 -165 85 -293 232 -308
97 -10 196 40 243 122 39 68 30 80 -69 99 -35 6 -39 5 -63 -33 -27 -43 -58
-57 -101 -47 -35 9 -54 60 -53 138 1 82 9 107 41 131 34 25 66 15 84 -28 7
-19 18 -36 24 -40 5 -3 42 -3 81 1 l71 7 -5 40 c-15 113 -173 192 -310 153z
m190 -37 c48 -23 88 -68 98 -111 l7 -28 -61 0 c-56 0 -62 2 -71 24 -20 54 -93
73 -130 36 -32 -32 -40 -64 -40 -154 0 -70 4 -88 23 -117 20 -30 29 -34 71
-37 45 -3 50 -1 86 38 37 40 41 42 79 35 47 -8 51 -21 21 -70 -62 -100 -223
-129 -325 -57 -25 18 -51 49 -70 86 -25 51 -30 70 -29 135 0 107 41 178 129
224 46 24 158 22 212 -4z"/>
<path d="M1542 2348 c-18 -23 -183 -501 -178 -515 4 -10 24 -13 78 -11 l72 3
17 45 17 45 74 3 74 3 15 -48 15 -48 87 -3 c67 -2 89 0 93 11 5 15 -159 492
-177 514 -15 18 -172 18 -187 1z m209 -118 c21 -58 60 -169 88 -248 l50 -143
-72 3 -71 3 -17 45 -17 45 -90 3 -91 3 -18 -51 -18 -50 -57 0 -57 0 45 128
c25 70 61 170 79 222 60 170 43 151 132 148 l77 -3 37 -105z"/>
<path d="M1591 2144 c-36 -95 -35 -99 32 -102 42 -2 57 0 57 10 0 24 -47 142
-58 146 -6 2 -20 -23 -31 -54z m58 -71 c1 -8 -11 -13 -29 -13 -34 0 -36 7 -14
58 l16 37 13 -35 c8 -19 14 -41 14 -47z"/>
<path d="M1945 2347 c-3 -7 -4 -127 -3 -267 l3 -255 85 0 85 0 3 86 3 86 80 7
c99 8 135 22 176 69 81 92 38 228 -86 272 -57 20 -339 22 -346 2z m315 -18
c36 -8 63 -22 91 -48 35 -34 39 -43 39 -89 0 -68 -12 -95 -55 -128 -32 -24
-48 -28 -133 -33 l-97 -6 -3 -92 -3 -93 -69 0 -70 0 0 250 0 250 125 0 c68 0
147 -5 175 -11z"/>
<path d="M2107 2243 c-4 -3 -7 -33 -7 -65 l0 -58 59 0 c76 0 99 20 92 80 -4
29 -42 50 -90 50 -26 0 -51 -3 -54 -7z m97 -23 c18 -6 26 -17 26 -33 0 -34
-19 -47 -67 -47 l-43 0 0 45 c0 43 1 45 29 45 16 0 41 -4 55 -10z"/>
<path d="M2455 2347 c-3 -7 -4 -127 -3 -267 l3 -255 85 0 85 0 3 268 2 267
-85 0 c-60 0 -87 -4 -90 -13z m155 -257 l0 -250 -65 0 -65 0 0 250 0 250 65 0
65 0 0 -250z"/>
<path d="M2677 2354 c-4 -4 -7 -33 -7 -65 0 -66 4 -69 86 -69 l54 0 2 -197 3
-198 88 -3 87 -3 0 201 0 200 63 0 c84 0 89 5 85 76 l-3 59 -226 3 c-124 1
-228 -1 -232 -4z m443 -59 l0 -44 -72 -3 -73 -3 -3 -202 -2 -203 -65 0 -65 0
0 189 c0 104 -3 196 -6 205 -5 12 -21 16 -75 16 l-69 0 0 45 0 45 215 0 215 0
0 -45z"/>
<path d="M3336 2351 c-15 -24 -176 -489 -176 -508 0 -22 4 -23 69 -23 75 0 82
4 101 63 l12 38 75 -3 75 -3 17 -45 17 -45 87 -3 c84 -3 87 -2 87 20 0 19
-128 394 -166 486 l-13 32 -90 0 c-49 0 -92 -4 -95 -9z m171 -23 c9 -11 173
-471 173 -484 0 -2 -31 -4 -69 -4 l-69 0 -17 50 -17 51 -91 -3 -91 -3 -17 -45
-17 -45 -56 -3 c-31 -2 -56 0 -56 3 0 3 39 116 87 250 l86 245 72 0 c46 0 76
-5 82 -12z"/>
<path d="M3390 2154 c-12 -27 -24 -64 -27 -81 l-6 -33 57 0 c47 0 56 3 56 18
0 27 -31 115 -46 131 -11 12 -16 7 -34 -35z m54 -71 c7 -21 4 -23 -28 -23
l-35 0 16 46 c16 46 16 46 28 23 7 -13 16 -34 19 -46z"/>
<path d="M3736 2345 c-8 -21 -8 -473 0 -503 l6 -22 202 2 201 3 3 59 c2 41 -1
62 -10 67 -7 5 -59 9 -115 9 l-103 0 -2 198 -3 197 -86 3 c-72 2 -88 0 -93
-13z m154 -194 c0 -104 3 -196 6 -205 5 -13 25 -16 120 -16 l114 0 0 -45 0
-45 -185 0 -185 0 0 250 0 250 65 0 65 0 0 -189z"/>
</g>
</svg>
