<?xml version="1.0" standalone="no"?>
<!DOCTYPE svg PUBLIC "-//W3C//DTD SVG 20010904//EN"
 "http://www.w3.org/TR/2001/REC-SVG-20010904/DTD/svg10.dtd">
<svg version="1.0" xmlns="http://www.w3.org/2000/svg"
 width="1800.000000pt" height="1200.000000pt" viewBox="0 0 1800.000000 1200.000000"
 preserveAspectRatio="xMidYMid meet">

<g transform="translate(0.000000,1200.000000) scale(0.100000,-0.100000)"
fill="#000000" stroke="none">
<path d="M5810 7662 c0 -59 14 -467 30 -907 65 -1735 90 -2409 93 -2411 2 -2
485 -10 4292 -69 864 -13 1659 -26 1768 -29 l197 -5 0 347 c0 191 -7 561 -15
822 -8 261 -26 871 -41 1355 -14 484 -27 880 -27 881 -3 1 -3115 60 -4677 89
-723 13 -1384 26 -1467 29 l-153 5 0 -107z m6110 -266 c0 -35 -9 -356 -21
-713 -11 -356 -30 -966 -42 -1355 -13 -389 -25 -709 -27 -712 -5 -4 -680 -15
-4265 -70 -792 -12 -1443 -20 -1447 -17 -9 8 98 2810 107 2820 3 2 667 17
1477 32 810 16 2000 40 2643 53 644 13 1261 24 1373 25 l202 1 0 -64z"/>
<path d="M6897 6973 c-3 -5 113 -314 257 -688 180 -470 266 -680 276 -680 10
0 81 172 227 550 117 302 213 553 213 557 0 4 -58 8 -129 8 l-129 0 -32 -87
c-121 -337 -146 -403 -150 -403 -3 0 -65 169 -139 375 l-134 375 -128 0 c-70
0 -130 -3 -132 -7z"/>
<path d="M7937 6973 c-4 -3 -7 -314 -7 -690 l0 -683 325 0 325 0 0 130 0 130
-195 0 -195 0 0 155 0 155 280 0 281 0 -3 123 -3 122 -277 3 -278 2 0 155 0
155 195 0 195 0 0 125 0 125 -318 0 c-175 0 -322 -3 -325 -7z"/>
<path d="M8798 6974 c-5 -4 -8 -60 -8 -125 l0 -117 268 -4 c263 -3 268 -3 312
-28 65 -36 93 -83 87 -143 -5 -59 -30 -95 -83 -122 -36 -18 -62 -20 -312 -23
l-272 -3 2 -402 3 -402 125 0 125 0 5 275 5 275 165 6 c170 6 211 14 293 55
146 75 214 200 205 378 -11 183 -96 294 -278 357 -61 21 -85 23 -350 27 -157
2 -288 0 -292 -4z"/>
<path d="M10290 6964 c-136 -29 -234 -80 -320 -168 -265 -270 -265 -742 0
-1012 68 -69 142 -115 245 -150 72 -25 94 -28 215 -28 103 -1 149 4 195 18
172 52 317 173 392 326 58 119 76 201 77 340 0 138 -18 219 -77 340 -58 120
-160 221 -277 278 -140 68 -302 88 -450 56z m297 -256 c156 -58 263 -254 249
-453 -15 -224 -138 -373 -335 -407 -176 -30 -345 57 -421 217 -131 276 11 618
277 665 65 12 167 2 230 -22z"/>
<path d="M10393 6409 c-102 -30 -113 -183 -18 -235 80 -43 185 19 185 108 0
94 -78 153 -167 127z"/>
<path d="M7363 5339 c-50 -25 -123 -100 -153 -159 -28 -55 -37 -138 -17 -164
16 -22 43 -24 149 -11 58 7 68 6 74 -9 13 -34 -6 -63 -65 -99 -63 -39 -94 -77
-85 -101 3 -9 15 -16 25 -16 25 0 90 60 115 105 12 23 38 47 71 65 64 36 65
36 57 6 -10 -41 13 -39 61 5 l45 42 0 -37 c0 -44 12 -45 64 -10 l39 27 -6 -24
c-13 -47 -18 -124 -8 -138 15 -23 37 -6 93 69 l53 71 5 -33 c8 -54 41 -50 105
14 48 48 54 51 59 33 11 -38 6 -54 -24 -88 -29 -34 -39 -70 -21 -81 15 -10 42
19 55 59 10 29 29 52 70 84 32 24 59 42 60 40 2 -2 -5 -44 -15 -94 -29 -139
-23 -225 16 -225 32 0 44 144 20 250 -5 23 1 28 65 57 l70 32 0 -29 c0 -56 33
-47 105 27 l36 38 -6 -75 c-5 -56 -16 -93 -41 -145 -36 -75 -40 -90 -24 -100
19 -12 38 14 50 68 16 66 23 79 81 153 64 80 62 94 -2 24 l-50 -55 6 90 7 90
-64 -69 c-36 -39 -69 -67 -75 -63 -10 7 -6 42 12 92 7 19 6 19 -12 -1 -24 -28
-129 -86 -147 -82 -11 2 -3 22 31 78 84 136 129 260 91 248 -20 -7 -75 -105
-109 -194 -28 -75 -35 -84 -89 -123 -33 -22 -63 -41 -68 -41 -5 0 -12 23 -15
52 -7 56 10 98 38 98 8 0 15 5 15 10 0 18 -26 11 -48 -13 -12 -13 -22 -32 -22
-43 0 -28 -97 -134 -122 -134 -18 0 -20 4 -15 43 3 23 9 53 12 67 6 24 6 24
-20 -5 -14 -16 -51 -65 -81 -107 -31 -43 -60 -78 -65 -78 -17 0 -9 78 19 173
40 135 50 147 115 148 28 0 70 4 92 9 31 7 18 8 -53 5 -70 -3 -92 -1 -89 8 3
7 12 29 21 50 24 55 5 45 -30 -15 -28 -50 -33 -53 -76 -58 -26 -3 -51 -10 -55
-14 -4 -5 16 -5 45 -1 33 4 52 3 52 -3 0 -6 -10 -35 -21 -66 -16 -41 -33 -64
-62 -86 -66 -48 -71 -40 -32 54 28 69 24 84 -11 39 -17 -22 -30 -30 -44 -26
-13 4 -29 -2 -43 -15 -12 -11 -48 -34 -79 -52 -52 -29 -58 -30 -58 -13 0 10
-7 29 -16 42 -18 25 -18 25 -154 5 -35 -5 -49 -2 -59 10 -46 55 29 215 136
285 49 33 109 41 131 19 30 -30 0 -115 -56 -157 -18 -14 -22 -20 -11 -21 34 0
99 97 99 150 0 31 -35 60 -72 60 -18 0 -52 -9 -75 -21z m977 -74 c0 -11 -79
-172 -94 -190 -15 -18 -15 -17 -1 24 21 62 76 171 86 171 5 0 9 -2 9 -5z
m-742 -276 c-30 -37 -48 -49 -48 -31 0 11 30 55 48 69 31 25 31 0 0 -38z
m-218 -108 c0 -17 -67 -81 -84 -81 -26 0 -19 16 26 54 42 36 58 44 58 27z
m824 -48 c6 -65 -4 -137 -19 -135 -21 3 -16 192 5 192 4 0 11 -26 14 -57z
m-164 35 c-1 -18 -29 -53 -36 -45 -4 3 1 18 10 32 18 28 26 32 26 13z m391
-105 c-12 -20 -14 -14 -5 12 4 9 9 14 11 11 3 -2 0 -13 -6 -23z"/>
<path d="M10178 5260 c-19 -30 -37 -62 -40 -71 -4 -11 -24 -18 -64 -23 -31 -3
-59 -5 -61 -3 -2 3 4 23 13 46 24 60 10 62 -20 3 -26 -52 -40 -62 -84 -62 -15
0 -34 -5 -42 -11 -11 -7 0 -8 39 -3 45 5 53 4 49 -8 -58 -149 -81 -309 -46
-316 11 -2 35 22 74 72 31 42 58 76 60 76 2 0 3 -25 2 -56 -2 -35 1 -58 8 -61
6 -2 28 29 49 69 21 40 47 84 59 96 l21 24 5 -43 c6 -52 26 -61 69 -29 l30 21
3 -43 c4 -60 32 -63 91 -9 l44 41 -13 -51 c-24 -90 0 -90 45 0 36 71 53 87 71
66 16 -19 40 -19 66 0 27 18 34 11 34 -33 0 -24 -9 -45 -30 -69 -31 -34 -38
-67 -19 -78 16 -11 48 25 59 66 8 28 23 47 58 72 72 52 70 52 55 -16 -14 -66
-9 -117 11 -117 7 0 24 12 38 28 41 44 128 164 128 176 -1 15 -45 -36 -102
-117 -27 -37 -53 -67 -59 -67 -32 0 44 290 81 310 10 5 38 10 62 11 24 0 61 4
83 9 31 7 21 8 -47 5 -97 -4 -104 1 -73 55 8 14 14 29 15 33 0 18 -21 -7 -41
-46 -26 -51 -34 -57 -79 -57 -19 0 -42 -5 -50 -11 -11 -7 0 -8 38 -4 28 4 52
3 52 -1 0 -4 -8 -32 -17 -62 -15 -48 -24 -59 -76 -94 -32 -22 -61 -37 -64 -34
-12 12 -20 91 -12 114 5 13 18 26 29 29 23 6 27 23 6 23 -19 0 -56 -47 -56
-71 0 -19 -35 -49 -59 -49 -7 0 -19 7 -26 17 -18 25 -41 10 -74 -49 -37 -64
-39 -51 -6 37 13 36 20 65 15 65 -5 0 -11 -8 -14 -18 -10 -32 -113 -132 -136
-132 -19 0 -20 4 -14 38 4 20 11 48 16 61 13 36 5 35 -41 -9 -23 -22 -48 -40
-56 -40 -17 0 -28 33 -20 60 4 14 1 22 -11 27 -21 8 -49 -25 -96 -112 -27 -49
-33 -56 -36 -37 -5 36 34 177 62 221 15 23 34 41 44 41 12 0 14 2 4 8 -10 7
-7 21 13 66 35 79 26 93 -17 26z m-79 -162 c-12 -29 -25 -63 -30 -75 -14 -36
-133 -193 -144 -189 -5 1 -8 23 -7 47 5 57 69 256 85 262 6 3 36 6 64 6 l53 1
-21 -52z m521 -258 c-6 -11 -15 -18 -20 -15 -6 4 -2 17 7 32 19 29 30 15 13
-17z"/>
<path d="M7920 5084 c0 -8 5 -12 10 -9 6 4 8 11 5 16 -9 14 -15 11 -15 -7z"/>
<path d="M10336 5091 c-4 -5 -2 -12 3 -15 5 -4 12 -2 15 3 4 5 2 12 -3 15 -5
4 -12 2 -15 -3z"/>
<path d="M8974 5053 c-32 -43 -84 -93 -96 -93 -12 0 -10 48 3 71 6 11 8 25 6
32 -7 19 -38 -62 -35 -91 5 -42 32 -37 87 17 29 28 54 51 55 51 2 0 -3 -39
-10 -87 -9 -59 -23 -107 -43 -146 -29 -57 -32 -87 -6 -87 14 0 28 31 46 100 6
25 27 67 47 94 l36 49 8 -31 c15 -57 78 -35 78 27 0 11 9 22 20 25 11 3 29 9
40 12 17 4 20 1 20 -25 0 -16 4 -32 9 -35 5 -3 31 12 57 34 l49 40 3 -45 c3
-39 6 -45 25 -45 12 0 38 13 58 29 l36 30 -14 -52 c-25 -97 -8 -106 37 -19 16
31 36 66 45 76 14 18 16 18 33 3 25 -22 44 -21 76 4 37 29 25 36 -18 10 l-34
-22 -16 23 c-21 30 -42 17 -78 -48 -32 -57 -37 -37 -8 36 26 67 25 81 -3 39
-12 -18 -42 -48 -66 -67 -56 -42 -69 -33 -53 39 18 77 16 78 -47 15 -67 -67
-86 -70 -66 -11 15 43 12 58 -8 32 -15 -20 -59 -37 -97 -37 -27 0 -29 -2 -21
-23 10 -27 -3 -57 -24 -57 -31 0 -12 79 24 107 9 7 12 13 8 13 -20 0 -49 -24
-92 -76 -43 -53 -45 -54 -44 -27 0 15 4 53 9 83 4 30 4 59 0 63 -4 4 -20 -9
-36 -30z m-34 -300 c-11 -17 -11 -17 -6 0 3 10 6 24 7 30 0 9 2 9 5 0 3 -7 0
-20 -6 -30z"/>
</g>
</svg>
