<?xml version="1.0" standalone="no"?>
<!DOCTYPE svg PUBLIC "-//W3C//DTD SVG 20010904//EN"
 "http://www.w3.org/TR/2001/REC-SVG-20010904/DTD/svg10.dtd">
<svg version="1.0" xmlns="http://www.w3.org/2000/svg"
 width="500.000000pt" height="500.000000pt" viewBox="0 0 500.000000 500.000000"
 preserveAspectRatio="xMidYMid meet">

<g transform="translate(0.000000,500.000000) scale(0.100000,-0.100000)"
fill="#000000" stroke="none">
<path d="M1913 3395 c-88 -19 -178 -70 -249 -140 -235 -232 -195 -629 80 -807
86 -56 168 -78 285 -78 158 0 267 44 371 150 202 205 200 535 -4 735 -132 130
-303 179 -483 140z m277 -40 c243 -97 376 -347 314 -589 -45 -176 -181 -317
-349 -361 -76 -19 -184 -19 -260 0 -168 44 -304 183 -351 360 -67 250 94 529
347 600 72 20 237 15 299 -10z"/>
<path d="M1880 3316 c-113 -25 -205 -97 -256 -201 -28 -57 -29 -67 -32 -213
-4 -173 5 -217 63 -298 45 -62 103 -108 173 -134 46 -17 79 -21 187 -21 151
-1 170 3 248 44 70 37 130 100 165 175 26 54 27 65 27 217 l0 160 -33 67 c-53
109 -153 186 -271 208 -71 13 -202 11 -271 -4z m341 -57 c73 -34 128 -85 165
-151 28 -51 29 -58 32 -210 4 -149 2 -160 -21 -210 -45 -99 -119 -163 -222
-193 -45 -13 -85 -16 -180 -13 -107 3 -128 7 -177 31 -66 32 -141 109 -171
175 -20 42 -22 64 -22 197 0 143 1 152 27 206 30 60 95 131 143 157 66 35 109
42 240 39 116 -2 136 -5 186 -28z"/>
<path d="M1814 3211 c-87 -39 -118 -160 -61 -235 63 -82 164 -93 241 -26 l33
29 27 -28 c70 -73 200 -52 247 40 38 76 20 154 -48 206 -30 23 -46 28 -94 28
-50 -1 -63 -5 -99 -34 l-42 -33 -26 25 c-52 50 -110 59 -178 28z m120 -15 c18
-7 47 -31 64 -52 18 -21 32 -33 32 -27 0 24 53 73 91 83 113 31 207 -73 168
-184 -19 -54 -67 -86 -128 -86 -53 0 -106 28 -122 64 l-11 24 -42 -44 c-41
-42 -45 -44 -100 -44 -54 0 -61 3 -97 39 -26 26 -39 48 -40 67 -4 93 25 141
96 163 42 13 51 13 89 -3z"/>
<path d="M1856 3088 c-20 -28 -4 -58 29 -58 35 0 52 36 29 61 -22 25 -39 24
-58 -3z m54 -18 c0 -5 -4 -10 -10 -10 -5 0 -10 5 -10 10 0 6 5 10 10 10 6 0
10 -4 10 -10z"/>
<path d="M2136 3091 c-23 -25 -6 -61 29 -61 33 0 49 30 29 58 -19 27 -36 28
-58 3z m54 -21 c0 -5 -4 -10 -10 -10 -5 0 -10 5 -10 10 0 6 5 10 10 10 6 0 10
-4 10 -10z"/>
<path d="M1985 2830 c-38 -10 -62 -18 -53 -19 28 -2 117 20 124 30 3 5 4 8 2
8 -2 -1 -34 -9 -73 -19z"/>
<path d="M2060 2818 c-53 -26 -77 -31 -130 -31 -60 0 -62 -1 -27 -10 30 -7 37
-14 37 -33 0 -17 -8 -27 -26 -34 -35 -14 -34 -14 -34 25 0 19 -4 35 -10 35 -5
0 -10 -18 -10 -40 0 -22 -4 -40 -9 -40 -5 0 -16 -3 -25 -6 -24 -9 -20 38 6 71
21 27 21 27 1 16 -50 -26 -53 -136 -5 -192 22 -27 31 -30 61 -26 20 2 70 25
112 51 l75 46 58 -20 c78 -26 142 -27 156 -1 16 31 12 54 -21 119 -54 109 -98
124 -209 70z m135 -18 c28 -31 13 -50 -41 -50 -38 0 -45 3 -40 16 3 9 6 24 6
35 0 26 51 26 75 -1z m-91 -17 c-4 -16 -12 -31 -18 -35 -20 -13 -54 -8 -60 8
-8 20 -9 18 34 37 49 21 51 21 44 -10z m-94 -23 c0 -5 0 -13 0 -17 0 -8 -50
-25 -50 -18 0 2 -3 10 -6 18 -3 10 2 17 13 20 31 8 43 7 43 -3z m185 -57 c-9
-52 -10 -53 -50 -40 -29 8 -35 15 -35 38 0 29 11 36 64 38 27 1 28 0 21 -36z
m-105 1 c0 -21 -4 -25 -22 -22 -28 4 -36 35 -11 41 32 8 33 7 33 -19z m163 -7
c12 -37 3 -57 -28 -57 -28 0 -29 1 -14 53 12 43 28 44 42 4z m-220 -6 c3 -13
-5 -26 -25 -41 -16 -12 -31 -20 -32 -18 -2 1 -6 20 -10 40 -6 34 -5 37 21 40
35 5 39 3 46 -21z m-81 -32 c3 -38 1 -44 -26 -60 -16 -10 -33 -16 -38 -13 -4
3 -8 27 -8 54 0 50 2 52 56 59 7 0 14 -17 16 -40z m-92 -6 c0 -16 3 -39 7 -53
6 -23 5 -24 -11 -11 -15 13 -46 62 -46 75 0 4 21 12 43 15 4 0 7 -11 7 -26z"/>
<path d="M2025 2585 l-30 -15 35 7 c19 4 53 10 75 14 l40 6 -45 1 c-25 1 -58
-5 -75 -13z"/>
<path d="M1370 2194 c0 -70 2 -78 29 -105 16 -16 39 -29 50 -29 20 0 21 -6 21
-80 0 -47 4 -80 10 -80 6 0 10 33 10 79 l0 79 30 5 c46 10 70 57 70 140 0 38
-4 67 -10 67 -6 0 -10 -30 -10 -70 0 -62 -3 -74 -25 -95 -37 -38 -98 -37 -132
1 -19 21 -23 37 -23 95 0 39 -4 69 -10 69 -6 0 -10 -32 -10 -76z"/>
<path d="M1780 2085 c0 -117 4 -185 10 -185 6 0 10 28 10 65 l0 65 43 0 c65 0
87 -21 87 -81 0 -27 5 -49 10 -49 6 0 10 21 10 48 0 50 -21 92 -46 92 -20 0
-18 4 16 52 17 22 30 45 30 50 0 17 -16 7 -32 -19 -30 -50 -58 -73 -88 -73
l-30 0 0 110 c0 67 -4 110 -10 110 -6 0 -10 -68 -10 -185z"/>
<path d="M2850 2194 c0 -70 2 -78 29 -105 16 -16 39 -29 50 -29 20 0 21 -6 21
-80 0 -47 4 -80 10 -80 6 0 10 33 10 79 l0 79 30 5 c46 10 70 57 70 140 0 38
-4 67 -10 67 -6 0 -10 -30 -10 -70 0 -62 -3 -74 -25 -95 -37 -38 -98 -37 -132
1 -19 21 -23 37 -23 95 0 39 -4 69 -10 69 -6 0 -10 -32 -10 -76z"/>
<path d="M3160 2261 l55 -6 3 -177 c1 -108 6 -178 12 -178 6 0 10 69 10 179
l0 180 53 4 c28 2 -2 3 -68 4 -78 0 -101 -2 -65 -6z"/>
<path d="M3380 2085 c0 -117 4 -185 10 -185 6 0 10 65 10 175 l0 175 50 0
c103 0 174 -67 174 -165 0 -95 -65 -165 -155 -165 -27 0 -49 -4 -49 -10 0 -17
82 -11 126 9 135 61 136 265 2 330 -31 14 -64 21 -106 21 l-62 0 0 -185z"/>
<path d="M1670 2226 c0 -9 7 -16 16 -16 17 0 14 22 -4 28 -7 2 -12 -3 -12 -12z"/>
<path d="M2084 2146 c-35 -16 -72 -58 -81 -94 -9 -37 14 -98 48 -126 56 -47
155 -30 193 34 18 32 21 60 6 60 -5 0 -10 -8 -10 -19 0 -30 -38 -70 -79 -82
-47 -14 -98 6 -124 50 -49 83 22 185 117 167 37 -7 67 -33 49 -44 -110 -72
-143 -96 -143 -103 0 -5 2 -9 5 -9 11 0 175 113 175 121 0 14 -56 47 -90 53
-21 3 -48 0 -66 -8z"/>
<path d="M1684 2025 c0 -71 1 -99 3 -62 2 37 2 96 0 130 -2 34 -3 4 -3 -68z"/>
<path d="M2317 2132 c-20 -22 -22 -65 -4 -80 6 -5 35 -17 64 -25 74 -22 93
-35 93 -60 0 -38 -19 -47 -97 -47 -42 0 -73 -4 -73 -10 0 -14 130 -12 160 3
18 9 26 22 28 48 4 45 -9 55 -89 77 -68 19 -91 41 -73 70 8 13 27 18 78 20 87
4 85 22 -2 22 -54 0 -72 -4 -85 -18z"/>
<path d="M3026 1682 c-3 -5 1 -9 9 -9 8 0 12 4 9 9 -3 4 -7 8 -9 8 -2 0 -6 -4
-9 -8z"/>
</g>
</svg>
